<?xml version="1.0" encoding="utf-8"?>
<!-- Generator: Adobe Illustrator 16.0.0, SVG Export Plug-In . SVG Version: 6.00 Build 0)  -->
<!DOCTYPE svg PUBLIC "-//W3C//DTD SVG 1.1//EN" "http://www.w3.org/Graphics/SVG/1.1/DTD/svg11.dtd">
<svg version="1.1" id="Layer_1" xmlns="http://www.w3.org/2000/svg" xmlns:xlink="http://www.w3.org/1999/xlink" x="0px" y="0px"
	 width="195px" height="195px" viewBox="0 0 195 195" enable-background="new 0 0 195 195" xml:space="preserve">
<title>Monogram</title>
<desc>Created with Sketch.</desc>
<rect width="195" height="195"/>
<path fill="#FFFFFF" d="M127.344,48.722H67.532c-10.391,0-18.844,8.454-18.844,18.844v19.907v39.922
	c0,10.39,8.454,18.843,18.844,18.843h59.812c10.391,0,18.846-8.453,18.846-18.843V87.473V67.566
	C146.189,57.176,137.734,48.722,127.344,48.722z M132.753,59.963l2.155-0.011v2.15v14.382l-16.477,0.05l-0.057-16.526
	L132.753,59.963z M83.526,87.473c3.119-4.328,8.186-7.16,13.911-7.16c5.729,0,10.794,2.832,13.912,7.16
	c2.039,2.822,3.253,6.271,3.253,10.004c0,9.467-7.703,17.165-17.165,17.165c-9.46,0-17.158-7.697-17.158-17.165
	C80.279,93.744,81.495,90.295,83.526,87.473z M136.688,127.396c0,5.15-4.187,9.342-9.344,9.342H67.532
	c-5.156,0-9.343-4.191-9.343-9.342V87.473h14.556c-1.26,3.09-1.965,6.466-1.965,10.004c0,14.702,11.958,26.67,26.658,26.67
	c14.701,0,26.659-11.969,26.659-26.67c0-3.538-0.71-6.914-1.963-10.004h14.554V127.396z"/>
</svg>
