<?xml version="1.0" encoding="utf-8"?>
<!-- Generator: Adobe Illustrator 16.0.0, SVG Export Plug-In . SVG Version: 6.00 Build 0)  -->
<!DOCTYPE svg PUBLIC "-//W3C//DTD SVG 1.1//EN" "http://www.w3.org/Graphics/SVG/1.1/DTD/svg11.dtd">
<svg version="1.1" id="Layer_1" xmlns="http://www.w3.org/2000/svg" xmlns:xlink="http://www.w3.org/1999/xlink" x="0px" y="0px"
	 width="195px" height="195px" viewBox="0 0 195 195" enable-background="new 0 0 195 195" xml:space="preserve">
<title>Monogram</title>
<desc>Created with Sketch.</desc>
<rect x="0.334" width="194.549" height="194.553"/>
<path fill="#FFFFFF" d="M69.986,137.207H51.11V76.791h18.876V137.207z M60.064,69.228h-0.137c-6.831,0-11.26-4.614-11.26-10.463
	c0-5.972,4.562-10.492,11.529-10.492c6.962,0,11.246,4.508,11.382,10.474C71.579,64.596,67.159,69.228,60.064,69.228z
	 M145.506,137.207H124.1v-31.266c0-8.183-3.348-13.767-10.709-13.767c-5.625,0-8.762,3.764-10.219,7.399
	c-0.545,1.303-0.455,3.115-0.455,4.939v32.693H81.507c0,0,0.274-55.385,0-60.417h21.209v9.479
	c1.244-4.147,8.016-10.062,18.838-10.062c13.41,0,23.951,8.69,23.951,27.406V137.207z"/>
</svg>
