<?xml version="1.0" encoding="utf-8"?>
<!-- Generator: Adobe Illustrator 16.0.0, SVG Export Plug-In . SVG Version: 6.00 Build 0)  -->
<!DOCTYPE svg PUBLIC "-//W3C//DTD SVG 1.1//EN" "http://www.w3.org/Graphics/SVG/1.1/DTD/svg11.dtd">
<svg version="1.1" id="Layer_1" xmlns="http://www.w3.org/2000/svg" xmlns:xlink="http://www.w3.org/1999/xlink" x="0px" y="0px"
	 width="195px" height="195px" viewBox="0 0 195 195" enable-background="new 0 0 195 195" xml:space="preserve">
<title>Monogram</title>
<desc>Created with Sketch.</desc>
<g id="Page-1">
	<g id="Monogram">
		<rect id="Rectangle-path" fill="#12100E" width="195" height="195"/>
		<path id="Shape" fill="#FFFFFF" d="M46.534,65.216c0.163-1.608-0.451-3.198-1.651-4.28L32.651,46.201V44H70.63l29.356,64.381
			L125.795,44H162v2.201l-10.458,10.027c-0.901,0.688-1.349,1.817-1.162,2.935v73.674c-0.187,1.118,0.261,2.247,1.162,2.935
			l10.214,10.027V148h-51.373v-2.201l10.58-10.271c1.04-1.038,1.04-1.346,1.04-2.935V73.042l-29.417,74.714h-3.975L54.362,73.042
			v50.073c-0.286,2.105,0.414,4.226,1.896,5.748l13.76,16.691v2.2H31v-2.2l13.761-16.691c1.471-1.525,2.13-3.658,1.773-5.748V65.216
			z"/>
	</g>
</g>
</svg>
