<?xml version="1.0" encoding="utf-8"?>
<!-- Generator: Adobe Illustrator 16.0.0, SVG Export Plug-In . SVG Version: 6.00 Build 0)  -->
<!DOCTYPE svg PUBLIC "-//W3C//DTD SVG 1.1//EN" "http://www.w3.org/Graphics/SVG/1.1/DTD/svg11.dtd">
<svg version="1.1" id="Layer_1" xmlns="http://www.w3.org/2000/svg" xmlns:xlink="http://www.w3.org/1999/xlink" x="0px" y="0px"
	 width="195px" height="195px" viewBox="0 0 195 195" enable-background="new 0 0 195 195" xml:space="preserve">
<title>Monogram</title>
<desc>Created with Sketch.</desc>
<rect width="194.966" height="195"/>
<path fill="#FFFFFF" d="M146.392,71.959c-3.593,1.595-7.455,2.67-11.508,3.157c4.143-2.48,7.321-6.41,8.811-11.083
	c-3.874,2.295-8.156,3.958-12.729,4.853c-3.644-3.89-8.855-6.325-14.62-6.325c-11.061,0-20.027,8.978-20.027,20.038
	c0,1.573,0.168,3.096,0.516,4.562c-16.65-0.84-31.407-8.805-41.295-20.94c-1.724,2.972-2.711,6.415-2.711,10.086
	c0,6.941,3.537,13.081,8.914,16.675c-3.283-0.101-6.375-1.008-9.079-2.502v0.247c0,9.711,6.904,17.81,16.076,19.646
	c-1.682,0.471-3.451,0.705-5.281,0.705c-1.29,0-2.549-0.117-3.767-0.352c2.546,7.954,9.943,13.751,18.711,13.909
	c-6.856,5.372-15.496,8.574-24.88,8.574c-1.618,0-3.216-0.089-4.78-0.272c8.866,5.68,19.398,8.998,30.71,8.998
	c36.855,0,57-30.527,57-57.013c0-0.868-0.017-1.735-0.056-2.592C140.313,79.504,143.717,75.978,146.392,71.959"/>
</svg>
